# xmcd
#
# Track frame offsets:
#	150
#	18804
#	42233
#	69589
#	95600
#	119263
#	163790
#	182104
#	198133
#
# Disc length: 3496 seconds
#
# Revision: 1
# Processed by: cddbd v1.5.2PL0 Copyright (c) Steve Scherf et al.
# Submitted via: audiograbber 1.83.01
#
DISCID=710da609
DTITLE=Henrik Freischlader Band - Henrik Freischlader Band Live BoxSet CD1
DYEAR=2008
DGENRE=Blues
TTITLE0=The blues
TTITLE1=Disappointed Women
TTITLE2=Too Cool For Me
TTITLE3=Keep Playin'
TTITLE4=Nothin' To Lose
TTITLE5=Dirty Low Down And Bad
TTITLE6=Is It Right
TTITLE7=Livin' It Up
TTITLE8=She's Back (for Another Try)
EXTD=
EXTT0=
EXTT1=
EXTT2=
EXTT3=
EXTT4=
EXTT5=
EXTT6=
EXTT7=
EXTT8=
PLAYORDER=
